<svg id="visual" viewBox="0 0 540 960" width="540" height="960" xmlns="http://www.w3.org/2000/svg" xmlns:xlink="http://www.w3.org/1999/xlink" version="1.1"><rect x="0" y="0" width="540" height="960" fill="#140021"></rect><path d="M506 0L538 0L538 42L529 42L529 83L518 83L518 125L483 125L483 167L506 167L506 209L516 209L516 250L518 250L518 292L464 292L464 334L538 334L538 376L490 376L490 417L478 417L478 459L489 459L489 501L511 501L511 543L466 543L466 584L482 584L482 626L529 626L529 668L528 668L528 710L535 710L535 751L468 751L468 793L539 793L539 835L520 835L520 877L494 877L494 918L488 918L488 960L0 960L0 918L0 918L0 877L0 877L0 835L0 835L0 793L0 793L0 751L0 751L0 710L0 710L0 668L0 668L0 626L0 626L0 584L0 584L0 543L0 543L0 501L0 501L0 459L0 459L0 417L0 417L0 376L0 376L0 334L0 334L0 292L0 292L0 250L0 250L0 209L0 209L0 167L0 167L0 125L0 125L0 83L0 83L0 42L0 42L0 0L0 0Z" fill="#072a12"></path><path d="M449 0L417 0L417 42L447 42L447 83L480 83L480 125L499 125L499 167L460 167L460 209L444 209L444 250L457 250L457 292L483 292L483 334L461 334L461 376L482 376L482 417L451 417L451 459L462 459L462 501L436 501L436 543L492 543L492 584L432 584L432 626L473 626L473 668L476 668L476 710L481 710L481 751L461 751L461 793L468 793L468 835L476 835L476 877L438 877L438 918L485 918L485 960L0 960L0 918L0 918L0 877L0 877L0 835L0 835L0 793L0 793L0 751L0 751L0 710L0 710L0 668L0 668L0 626L0 626L0 584L0 584L0 543L0 543L0 501L0 501L0 459L0 459L0 417L0 417L0 376L0 376L0 334L0 334L0 292L0 292L0 250L0 250L0 209L0 209L0 167L0 167L0 125L0 125L0 83L0 83L0 42L0 42L0 0L0 0Z" fill="#0a2d15"></path><path d="M445 0L415 0L415 42L388 42L388 83L444 83L444 125L443 125L443 167L383 167L383 209L406 209L406 250L411 250L411 292L419 292L419 334L417 334L417 376L427 376L427 417L428 417L428 459L420 459L420 501L456 501L456 543L405 543L405 584L383 584L383 626L439 626L439 668L413 668L413 710L444 710L444 751L421 751L421 793L387 793L387 835L414 835L414 877L442 877L442 918L396 918L396 960L0 960L0 918L0 918L0 877L0 877L0 835L0 835L0 793L0 793L0 751L0 751L0 710L0 710L0 668L0 668L0 626L0 626L0 584L0 584L0 543L0 543L0 501L0 501L0 459L0 459L0 417L0 417L0 376L0 376L0 334L0 334L0 292L0 292L0 250L0 250L0 209L0 209L0 167L0 167L0 125L0 125L0 83L0 83L0 42L0 42L0 0L0 0Z" fill="#0d3017"></path><path d="M346 0L382 0L382 42L381 42L381 83L340 83L340 125L353 125L353 167L385 167L385 209L372 209L372 250L342 250L342 292L335 292L335 334L377 334L377 376L411 376L411 417L395 417L395 459L339 459L339 501L392 501L392 543L383 543L383 584L354 584L354 626L349 626L349 668L392 668L392 710L398 710L398 751L377 751L377 793L364 793L364 835L375 835L375 877L356 877L356 918L381 918L381 960L0 960L0 918L0 918L0 877L0 877L0 835L0 835L0 793L0 793L0 751L0 751L0 710L0 710L0 668L0 668L0 626L0 626L0 584L0 584L0 543L0 543L0 501L0 501L0 459L0 459L0 417L0 417L0 376L0 376L0 334L0 334L0 292L0 292L0 250L0 250L0 209L0 209L0 167L0 167L0 125L0 125L0 83L0 83L0 42L0 42L0 0L0 0Z" fill="#10331a"></path><path d="M302 0L315 0L315 42L328 42L328 83L336 83L336 125L366 125L366 167L365 167L365 209L323 209L323 250L297 250L297 292L344 292L344 334L349 334L349 376L351 376L351 417L370 417L370 459L338 459L338 501L318 501L318 543L327 543L327 584L300 584L300 626L343 626L343 668L293 668L293 710L341 710L341 751L316 751L316 793L319 793L319 835L324 835L324 877L324 877L324 918L294 918L294 960L0 960L0 918L0 918L0 877L0 877L0 835L0 835L0 793L0 793L0 751L0 751L0 710L0 710L0 668L0 668L0 626L0 626L0 584L0 584L0 543L0 543L0 501L0 501L0 459L0 459L0 417L0 417L0 376L0 376L0 334L0 334L0 292L0 292L0 250L0 250L0 209L0 209L0 167L0 167L0 125L0 125L0 83L0 83L0 42L0 42L0 0L0 0Z" fill="#13361c"></path><path d="M274 0L255 0L255 42L325 42L325 83L274 83L274 125L300 125L300 167L273 167L273 209L278 209L278 250L291 250L291 292L258 292L258 334L304 334L304 376L260 376L260 417L327 417L327 459L326 459L326 501L291 501L291 543L268 543L268 584L262 584L262 626L290 626L290 668L268 668L268 710L323 710L323 751L263 751L263 793L323 793L323 835L332 835L332 877L333 877L333 918L299 918L299 960L0 960L0 918L0 918L0 877L0 877L0 835L0 835L0 793L0 793L0 751L0 751L0 710L0 710L0 668L0 668L0 626L0 626L0 584L0 584L0 543L0 543L0 501L0 501L0 459L0 459L0 417L0 417L0 376L0 376L0 334L0 334L0 292L0 292L0 250L0 250L0 209L0 209L0 167L0 167L0 125L0 125L0 83L0 83L0 42L0 42L0 0L0 0Z" fill="#16391f"></path><path d="M214 0L280 0L280 42L231 42L231 83L269 83L269 125L246 125L246 167L226 167L226 209L254 209L254 250L281 250L281 292L237 292L237 334L215 334L215 376L212 376L212 417L291 417L291 459L263 459L263 501L213 501L213 543L225 543L225 584L240 584L240 626L243 626L243 668L277 668L277 710L237 710L237 751L264 751L264 793L218 793L218 835L228 835L228 877L260 877L260 918L246 918L246 960L0 960L0 918L0 918L0 877L0 877L0 835L0 835L0 793L0 793L0 751L0 751L0 710L0 710L0 668L0 668L0 626L0 626L0 584L0 584L0 543L0 543L0 501L0 501L0 459L0 459L0 417L0 417L0 376L0 376L0 334L0 334L0 292L0 292L0 250L0 250L0 209L0 209L0 167L0 167L0 125L0 125L0 83L0 83L0 42L0 42L0 0L0 0Z" fill="#183c21"></path><path d="M242 0L179 0L179 42L210 42L210 83L202 83L202 125L182 125L182 167L205 167L205 209L223 209L223 250L173 250L173 292L173 292L173 334L196 334L196 376L179 376L179 417L218 417L218 459L217 459L217 501L180 501L180 543L188 543L188 584L233 584L233 626L232 626L232 668L218 668L218 710L213 710L213 751L213 751L213 793L218 793L218 835L208 835L208 877L240 877L240 918L236 918L236 960L0 960L0 918L0 918L0 877L0 877L0 835L0 835L0 793L0 793L0 751L0 751L0 710L0 710L0 668L0 668L0 626L0 626L0 584L0 584L0 543L0 543L0 501L0 501L0 459L0 459L0 417L0 417L0 376L0 376L0 334L0 334L0 292L0 292L0 250L0 250L0 209L0 209L0 167L0 167L0 125L0 125L0 83L0 83L0 42L0 42L0 0L0 0Z" fill="#1b3f24"></path><path d="M164 0L142 0L142 42L173 42L173 83L149 83L149 125L192 125L192 167L176 167L176 209L175 209L175 250L166 250L166 292L169 292L169 334L171 334L171 376L148 376L148 417L176 417L176 459L167 459L167 501L191 501L191 543L176 543L176 584L198 584L198 626L168 626L168 668L143 668L143 710L168 710L168 751L165 751L165 793L164 793L164 835L179 835L179 877L170 877L170 918L127 918L127 960L0 960L0 918L0 918L0 877L0 877L0 835L0 835L0 793L0 793L0 751L0 751L0 710L0 710L0 668L0 668L0 626L0 626L0 584L0 584L0 543L0 543L0 501L0 501L0 459L0 459L0 417L0 417L0 376L0 376L0 334L0 334L0 292L0 292L0 250L0 250L0 209L0 209L0 167L0 167L0 125L0 125L0 83L0 83L0 42L0 42L0 0L0 0Z" fill="#1e4226"></path><path d="M142 0L96 0L96 42L127 42L127 83L109 83L109 125L140 125L140 167L103 167L103 209L120 209L120 250L148 250L148 292L95 292L95 334L147 334L147 376L115 376L115 417L121 417L121 459L129 459L129 501L104 501L104 543L139 543L139 584L124 584L124 626L94 626L94 668L99 668L99 710L123 710L123 751L120 751L120 793L150 793L150 835L166 835L166 877L97 877L97 918L107 918L107 960L0 960L0 918L0 918L0 877L0 877L0 835L0 835L0 793L0 793L0 751L0 751L0 710L0 710L0 668L0 668L0 626L0 626L0 584L0 584L0 543L0 543L0 501L0 501L0 459L0 459L0 417L0 417L0 376L0 376L0 334L0 334L0 292L0 292L0 250L0 250L0 209L0 209L0 167L0 167L0 125L0 125L0 83L0 83L0 42L0 42L0 0L0 0Z" fill="#214529"></path><path d="M81 0L46 0L46 42L74 42L74 83L59 83L59 125L118 125L118 167L111 167L111 209L93 209L93 250L61 250L61 292L111 292L111 334L116 334L116 376L118 376L118 417L89 417L89 459L99 459L99 501L83 501L83 543L116 543L116 584L68 584L68 626L62 626L62 668L96 668L96 710L87 710L87 751L105 751L105 793L122 793L122 835L77 835L77 877L75 877L75 918L85 918L85 960L0 960L0 918L0 918L0 877L0 877L0 835L0 835L0 793L0 793L0 751L0 751L0 710L0 710L0 668L0 668L0 626L0 626L0 584L0 584L0 543L0 543L0 501L0 501L0 459L0 459L0 417L0 417L0 376L0 376L0 334L0 334L0 292L0 292L0 250L0 250L0 209L0 209L0 167L0 167L0 125L0 125L0 83L0 83L0 42L0 42L0 0L0 0Z" fill="#23482b"></path><path d="M64 0L18 0L18 42L30 42L30 83L55 83L55 125L38 125L38 167L81 167L81 209L11 209L11 250L51 250L51 292L11 292L11 334L69 334L69 376L36 376L36 417L42 417L42 459L42 459L42 501L15 501L15 543L78 543L78 584L18 584L18 626L73 626L73 668L55 668L55 710L32 710L32 751L15 751L15 793L23 793L23 835L18 835L18 877L76 877L76 918L71 918L71 960L0 960L0 918L0 918L0 877L0 877L0 835L0 835L0 793L0 793L0 751L0 751L0 710L0 710L0 668L0 668L0 626L0 626L0 584L0 584L0 543L0 543L0 501L0 501L0 459L0 459L0 417L0 417L0 376L0 376L0 334L0 334L0 292L0 292L0 250L0 250L0 209L0 209L0 167L0 167L0 125L0 125L0 83L0 83L0 42L0 42L0 0L0 0Z" fill="#264b2e"></path></svg>